<?xml version="1.0" standalone="no"?>
<!DOCTYPE svg PUBLIC "-//W3C//DTD SVG 20010904//EN"
 "http://www.w3.org/TR/2001/REC-SVG-20010904/DTD/svg10.dtd">
<svg version="1.0" xmlns="http://www.w3.org/2000/svg"
 width="500.000000pt" height="500.000000pt" viewBox="0 0 500.000000 500.000000"
 preserveAspectRatio="xMidYMid meet">
<metadata>
Created by potrace 1.14, written by Peter Selinger 2001-2017
</metadata>
<g transform="translate(0.000000,500.000000) scale(0.100000,-0.100000)"
fill="#000000" stroke="none">
<path d="M2270 4884 c-348 -41 -594 -110 -859 -243 -697 -350 -1176 -1007
-1297 -1781 -14 -87 -18 -172 -18 -350 0 -178 4 -263 18 -350 163 -1040 966
-1843 2006 -2006 162 -26 538 -26 700 0 1040 163 1843 966 2006 2006 14 87 18
172 18 350 0 178 -4 263 -18 350 -163 1037 -967 1843 -2001 2005 -95 15 -477
28 -555 19z m770 -748 c201 -40 341 -93 474 -179 249 -163 404 -404 446 -696
17 -116 8 -342 -19 -449 -101 -404 -425 -679 -897 -763 -102 -18 -174 -22
-496 -26 l-378 -6 0 -368 0 -368 53 -10 c28 -5 102 -20 162 -31 61 -12 118
-24 128 -26 15 -5 17 -23 17 -205 l0 -199 -695 0 -695 0 2 202 3 202 169 33
c93 18 173 36 178 41 4 4 7 546 6 1202 l-3 1195 -177 34 -178 34 0 204 0 204
908 -4 c802 -3 917 -6 992 -21z"/>
<path d="M2170 3090 l0 -552 348 4 c376 5 401 8 520 66 75 36 160 124 201 206
107 218 68 513 -90 674 -60 61 -109 92 -199 123 -62 22 -80 24 -422 27 l-358
4 0 -552z"/>
</g>
</svg>
